<?xml version="1.0" encoding="iso-8859-1"?>
<!-- Generator: Adobe Illustrator 17.0.0, SVG Export Plug-In . SVG Version: 6.00 Build 0)  -->
<!DOCTYPE svg PUBLIC "-//W3C//DTD SVG 1.1//EN" "http://www.w3.org/Graphics/SVG/1.1/DTD/svg11.dtd">
<svg version="1.1" id="Layer_1" xmlns="http://www.w3.org/2000/svg" xmlns:xlink="http://www.w3.org/1999/xlink" x="0px" y="0px"
	 width="116.403px" height="36.28px" viewBox="0 0 116.403 36.28" style="enable-background:new 0 0 116.403 36.28;"
	 xml:space="preserve">
<path style="fill:#800000018000000180000001;" d="M33.358,25.674l-1.147,6.086c-5.028,2.735-9.527,4.323-15.432,4.52
	C6.741,36.616,0,30.689,0,20.335C0,8.22,8.326-0.134,20.699,0.002C26.72,0.068,30.888,2.053,32.741,3.31l-3.352,7.631
	c-1.502-0.726-4.323-1.236-6.705-1.236c-6.109,0-9.092,3.965-9.262,9.087c-0.176,5.293,3.095,8.798,7.94,9.263
	C27.801,28.673,31.771,26.468,33.358,25.674z"/>
<path style="fill:#800000018000000180000001;" d="M55.808,27.557c-0.254,1.821,0.421,2.946,4.655,1.093l1.522,4.499
	c-5.293,2.492-8.506,3.131-10.623,3.131c-3.218,0-5.124-1.313-5.844-3.218c-2.329,2.16-4.785,3.218-7.58,3.218
	c-4.489,0-7.199-3.303-6.564-7.749l2.16-15.245h10.248l-1.821,12.831c-0.169,1.143,0.551,2.075,1.609,2.075
	c1.016,0,1.991-0.931,2.16-2.075l1.821-12.831h10.248L55.808,27.557z"/>
<path style="fill:#800000018000000180000001;" d="M76.175,15.489L77.7,4.437h10.247l-3.26,23.29
	c-0.211,1.652,0.544,2.887,4.779,0.594l1.676,4.764c-1.676,0.97-5.822,3.264-10.901,3.196c-3.133-0.042-5.124-1.44-5.802-3.515
	c-1.778,2.075-3.938,3.515-7.241,3.515c-4.743,0-7.495-4.404-7.495-9.909c0-7.749,4.954-13.635,11.137-13.635
	C73.296,12.736,74.947,13.795,76.175,15.489z M75.794,23.873c0-1.779-0.974-3.176-2.499-3.176c-1.99,0-3.557,2.033-3.557,4.362
	c0,1.778,0.931,3.176,2.498,3.176C74.185,28.235,75.794,26.203,75.794,23.873z"/>
<path style="fill:#800000018000000180000001;" d="M105.52,15.489l0.297-2.202h10.248l-2.033,14.44
	c-0.211,1.652,0.805,1.948,2.372,1.567l-0.362,4.385c-2.183,1.721-4.338,2.602-6.456,2.602c-3.134,0-5.124-1.44-5.802-3.515
	c-1.778,2.118-4.023,3.515-7.241,3.515c-4.743,0-7.495-4.404-7.495-9.909c0-7.58,4.954-13.635,11.137-13.635
	C102.64,12.736,104.292,13.795,105.52,15.489z M105.139,23.873c0-1.779-0.974-3.176-2.499-3.176c-1.99,0-3.557,2.033-3.557,4.362
	c0,1.778,0.932,3.176,2.498,3.176C103.53,28.235,105.139,26.203,105.139,23.873z"/>
</svg>
